<mxfile host="app.diagrams.net" agent="Mozilla/5.0 (X11; Ubuntu; Linux x86_64; rv:138.0) Gecko/20100101 Firefox/138.0" version="26.2.14">
  <diagram name="Page-1" id="jIJIBkRZfeoX5zDG5l12">
    <mxGraphModel dx="938" dy="550" grid="1" gridSize="1" guides="1" tooltips="1" connect="1" arrows="1" fold="1" page="1" pageScale="1" pageWidth="827" pageHeight="1169" math="0" shadow="0">
      <root>
        <mxCell id="0" />
        <mxCell id="1" parent="0" />
        <mxCell id="3i3wIMSMk3J9uJtSN4M2-1" value="" style="shape=trapezoid;perimeter=trapezoidPerimeter;whiteSpace=wrap;html=1;fixedSize=1;rotation=90;" vertex="1" parent="1">
          <mxGeometry x="410" y="230" width="80" height="20" as="geometry" />
        </mxCell>
        <mxCell id="3i3wIMSMk3J9uJtSN4M2-3" value="" style="endArrow=classic;html=1;rounded=0;entryX=0;entryY=0.5;entryDx=0;entryDy=0;" edge="1" parent="1" target="3i3wIMSMk3J9uJtSN4M2-1">
          <mxGeometry width="50" height="50" relative="1" as="geometry">
            <mxPoint x="450" y="180" as="sourcePoint" />
            <mxPoint x="450" y="150" as="targetPoint" />
          </mxGeometry>
        </mxCell>
        <mxCell id="3i3wIMSMk3J9uJtSN4M2-4" value="" style="endArrow=none;html=1;rounded=0;" edge="1" parent="1">
          <mxGeometry width="50" height="50" relative="1" as="geometry">
            <mxPoint x="182" y="180" as="sourcePoint" />
            <mxPoint x="450" y="180" as="targetPoint" />
          </mxGeometry>
        </mxCell>
        <mxCell id="3i3wIMSMk3J9uJtSN4M2-5" value="&lt;div&gt;branch_cond&lt;/div&gt;" style="edgeLabel;html=1;align=center;verticalAlign=middle;resizable=0;points=[];" vertex="1" connectable="0" parent="3i3wIMSMk3J9uJtSN4M2-4">
          <mxGeometry x="-0.8147" y="2" relative="1" as="geometry">
            <mxPoint x="-56" as="offset" />
          </mxGeometry>
        </mxCell>
        <mxCell id="3i3wIMSMk3J9uJtSN4M2-6" value="" style="endArrow=classic;html=1;rounded=0;entryX=0.166;entryY=1.025;entryDx=0;entryDy=0;entryPerimeter=0;strokeWidth=2;" edge="1" parent="1">
          <mxGeometry width="50" height="50" relative="1" as="geometry">
            <mxPoint x="181" y="221" as="sourcePoint" />
            <mxPoint x="439.5" y="220.27999999999997" as="targetPoint" />
          </mxGeometry>
        </mxCell>
        <mxCell id="3i3wIMSMk3J9uJtSN4M2-19" value="next_pc_ze[31:0]" style="edgeLabel;html=1;align=center;verticalAlign=middle;resizable=0;points=[];" vertex="1" connectable="0" parent="3i3wIMSMk3J9uJtSN4M2-6">
          <mxGeometry x="-0.9636" y="2" relative="1" as="geometry">
            <mxPoint x="-49" as="offset" />
          </mxGeometry>
        </mxCell>
        <mxCell id="3i3wIMSMk3J9uJtSN4M2-7" value="" style="endArrow=classic;html=1;rounded=0;entryX=0.166;entryY=1.025;entryDx=0;entryDy=0;entryPerimeter=0;strokeWidth=2;" edge="1" parent="1">
          <mxGeometry width="50" height="50" relative="1" as="geometry">
            <mxPoint x="181" y="260" as="sourcePoint" />
            <mxPoint x="440" y="259.76" as="targetPoint" />
          </mxGeometry>
        </mxCell>
        <mxCell id="3i3wIMSMk3J9uJtSN4M2-20" value="alu_result[31:0]" style="edgeLabel;html=1;align=center;verticalAlign=middle;resizable=0;points=[];" vertex="1" connectable="0" parent="3i3wIMSMk3J9uJtSN4M2-7">
          <mxGeometry x="-0.8545" y="-2" relative="1" as="geometry">
            <mxPoint x="-59" y="-2" as="offset" />
          </mxGeometry>
        </mxCell>
        <mxCell id="3i3wIMSMk3J9uJtSN4M2-9" value="" style="shape=trapezoid;perimeter=trapezoidPerimeter;whiteSpace=wrap;html=1;fixedSize=1;rotation=90;" vertex="1" parent="1">
          <mxGeometry x="374.75" y="385.25" width="150.5" height="20" as="geometry" />
        </mxCell>
        <mxCell id="3i3wIMSMk3J9uJtSN4M2-10" value="" style="endArrow=classic;html=1;rounded=0;entryX=0.166;entryY=1.025;entryDx=0;entryDy=0;entryPerimeter=0;strokeWidth=2;" edge="1" parent="1">
          <mxGeometry width="50" height="50" relative="1" as="geometry">
            <mxPoint x="320" y="340" as="sourcePoint" />
            <mxPoint x="439.5" y="340.00000000000006" as="targetPoint" />
          </mxGeometry>
        </mxCell>
        <mxCell id="3i3wIMSMk3J9uJtSN4M2-11" value="" style="endArrow=classic;html=1;rounded=0;entryX=0.166;entryY=1.025;entryDx=0;entryDy=0;entryPerimeter=0;strokeWidth=2;" edge="1" parent="1">
          <mxGeometry width="50" height="50" relative="1" as="geometry">
            <mxPoint x="179" y="449" as="sourcePoint" />
            <mxPoint x="441" y="449.00000000000006" as="targetPoint" />
          </mxGeometry>
        </mxCell>
        <mxCell id="3i3wIMSMk3J9uJtSN4M2-26" value="mem_out[31:0]" style="edgeLabel;html=1;align=center;verticalAlign=middle;resizable=0;points=[];" vertex="1" connectable="0" parent="3i3wIMSMk3J9uJtSN4M2-11">
          <mxGeometry x="-0.9382" y="1" relative="1" as="geometry">
            <mxPoint x="-47" as="offset" />
          </mxGeometry>
        </mxCell>
        <mxCell id="3i3wIMSMk3J9uJtSN4M2-12" value="" style="endArrow=classic;html=1;rounded=0;entryX=0.166;entryY=1.025;entryDx=0;entryDy=0;entryPerimeter=0;strokeWidth=2;" edge="1" parent="1">
          <mxGeometry width="50" height="50" relative="1" as="geometry">
            <mxPoint x="178" y="420" as="sourcePoint" />
            <mxPoint x="440" y="420.00000000000006" as="targetPoint" />
          </mxGeometry>
        </mxCell>
        <mxCell id="3i3wIMSMk3J9uJtSN4M2-25" value="next_pc_ze[31:0]" style="edgeLabel;html=1;align=center;verticalAlign=middle;resizable=0;points=[];" vertex="1" connectable="0" parent="3i3wIMSMk3J9uJtSN4M2-12">
          <mxGeometry x="-0.2145" relative="1" as="geometry">
            <mxPoint x="-150" y="-1" as="offset" />
          </mxGeometry>
        </mxCell>
        <mxCell id="3i3wIMSMk3J9uJtSN4M2-13" value="" style="endArrow=classic;html=1;rounded=0;exitX=0.5;exitY=0;exitDx=0;exitDy=0;strokeWidth=2;" edge="1" parent="1" source="3i3wIMSMk3J9uJtSN4M2-1">
          <mxGeometry width="50" height="50" relative="1" as="geometry">
            <mxPoint x="450" y="360" as="sourcePoint" />
            <mxPoint x="540" y="240" as="targetPoint" />
          </mxGeometry>
        </mxCell>
        <mxCell id="3i3wIMSMk3J9uJtSN4M2-18" value="pc_out[31:0]" style="edgeLabel;html=1;align=center;verticalAlign=middle;resizable=0;points=[];" vertex="1" connectable="0" parent="3i3wIMSMk3J9uJtSN4M2-13">
          <mxGeometry x="0.3259" relative="1" as="geometry">
            <mxPoint x="57" y="-5" as="offset" />
          </mxGeometry>
        </mxCell>
        <mxCell id="3i3wIMSMk3J9uJtSN4M2-14" value="" style="endArrow=none;html=1;rounded=0;strokeWidth=2;" edge="1" parent="1">
          <mxGeometry width="50" height="50" relative="1" as="geometry">
            <mxPoint x="395" y="300" as="sourcePoint" />
            <mxPoint x="450" y="300" as="targetPoint" />
          </mxGeometry>
        </mxCell>
        <mxCell id="3i3wIMSMk3J9uJtSN4M2-21" value="op_class[4:0]" style="edgeLabel;html=1;align=center;verticalAlign=middle;resizable=0;points=[];" vertex="1" connectable="0" parent="3i3wIMSMk3J9uJtSN4M2-14">
          <mxGeometry x="-0.5304" y="1" relative="1" as="geometry">
            <mxPoint x="-48" as="offset" />
          </mxGeometry>
        </mxCell>
        <mxCell id="3i3wIMSMk3J9uJtSN4M2-15" value="" style="endArrow=classic;html=1;rounded=0;entryX=1;entryY=0.5;entryDx=0;entryDy=0;strokeWidth=2;" edge="1" parent="1" target="3i3wIMSMk3J9uJtSN4M2-1">
          <mxGeometry width="50" height="50" relative="1" as="geometry">
            <mxPoint x="450" y="300" as="sourcePoint" />
            <mxPoint x="500" y="290" as="targetPoint" />
          </mxGeometry>
        </mxCell>
        <mxCell id="3i3wIMSMk3J9uJtSN4M2-16" value="" style="endArrow=classic;html=1;rounded=0;entryX=0;entryY=0.5;entryDx=0;entryDy=0;strokeWidth=2;" edge="1" parent="1" target="3i3wIMSMk3J9uJtSN4M2-9">
          <mxGeometry width="50" height="50" relative="1" as="geometry">
            <mxPoint x="450" y="300" as="sourcePoint" />
            <mxPoint x="460" y="320" as="targetPoint" />
          </mxGeometry>
        </mxCell>
        <mxCell id="3i3wIMSMk3J9uJtSN4M2-17" value="" style="endArrow=classic;html=1;rounded=0;strokeWidth=2;" edge="1" parent="1">
          <mxGeometry width="50" height="50" relative="1" as="geometry">
            <mxPoint x="460" y="397.21" as="sourcePoint" />
            <mxPoint x="540" y="397.21" as="targetPoint" />
          </mxGeometry>
        </mxCell>
        <mxCell id="3i3wIMSMk3J9uJtSN4M2-23" value="rd_value[31:0]" style="edgeLabel;html=1;align=center;verticalAlign=middle;resizable=0;points=[];" vertex="1" connectable="0" parent="3i3wIMSMk3J9uJtSN4M2-17">
          <mxGeometry x="0.8595" relative="1" as="geometry">
            <mxPoint x="41" y="-7" as="offset" />
          </mxGeometry>
        </mxCell>
        <mxCell id="3i3wIMSMk3J9uJtSN4M2-22" value="" style="endArrow=none;html=1;rounded=0;strokeWidth=2;" edge="1" parent="1">
          <mxGeometry width="50" height="50" relative="1" as="geometry">
            <mxPoint x="320" y="340" as="sourcePoint" />
            <mxPoint x="320" y="260" as="targetPoint" />
          </mxGeometry>
        </mxCell>
        <mxCell id="3i3wIMSMk3J9uJtSN4M2-27" value="" style="endArrow=none;html=1;rounded=0;" edge="1" parent="1">
          <mxGeometry width="50" height="50" relative="1" as="geometry">
            <mxPoint x="285" y="387.5" as="sourcePoint" />
            <mxPoint x="285" y="347.5" as="targetPoint" />
          </mxGeometry>
        </mxCell>
        <mxCell id="3i3wIMSMk3J9uJtSN4M2-28" value="" style="endArrow=none;html=1;rounded=0;" edge="1" parent="1">
          <mxGeometry width="50" height="50" relative="1" as="geometry">
            <mxPoint x="255" y="327.5" as="sourcePoint" />
            <mxPoint x="285" y="347.5" as="targetPoint" />
          </mxGeometry>
        </mxCell>
        <mxCell id="3i3wIMSMk3J9uJtSN4M2-29" value="" style="endArrow=none;html=1;rounded=0;" edge="1" parent="1">
          <mxGeometry width="50" height="50" relative="1" as="geometry">
            <mxPoint x="255" y="407.5" as="sourcePoint" />
            <mxPoint x="285" y="387.5" as="targetPoint" />
          </mxGeometry>
        </mxCell>
        <mxCell id="3i3wIMSMk3J9uJtSN4M2-30" value="" style="endArrow=none;html=1;rounded=0;" edge="1" parent="1">
          <mxGeometry width="50" height="50" relative="1" as="geometry">
            <mxPoint x="255" y="357.5" as="sourcePoint" />
            <mxPoint x="255" y="327.5" as="targetPoint" />
          </mxGeometry>
        </mxCell>
        <mxCell id="3i3wIMSMk3J9uJtSN4M2-31" value="" style="endArrow=none;html=1;rounded=0;" edge="1" parent="1">
          <mxGeometry width="50" height="50" relative="1" as="geometry">
            <mxPoint x="255" y="407.5" as="sourcePoint" />
            <mxPoint x="255" y="377.5" as="targetPoint" />
          </mxGeometry>
        </mxCell>
        <mxCell id="3i3wIMSMk3J9uJtSN4M2-32" value="" style="endArrow=none;html=1;rounded=0;" edge="1" parent="1">
          <mxGeometry width="50" height="50" relative="1" as="geometry">
            <mxPoint x="255" y="377.5" as="sourcePoint" />
            <mxPoint x="265" y="367.5" as="targetPoint" />
          </mxGeometry>
        </mxCell>
        <mxCell id="3i3wIMSMk3J9uJtSN4M2-33" value="" style="endArrow=none;html=1;rounded=0;" edge="1" parent="1">
          <mxGeometry width="50" height="50" relative="1" as="geometry">
            <mxPoint x="255" y="357.5" as="sourcePoint" />
            <mxPoint x="265" y="367.5" as="targetPoint" />
          </mxGeometry>
        </mxCell>
        <mxCell id="3i3wIMSMk3J9uJtSN4M2-38" value="" style="endArrow=classic;html=1;rounded=0;strokeWidth=2;" edge="1" parent="1">
          <mxGeometry width="50" height="50" relative="1" as="geometry">
            <mxPoint x="177" y="390" as="sourcePoint" />
            <mxPoint x="255" y="390" as="targetPoint" />
          </mxGeometry>
        </mxCell>
        <mxCell id="3i3wIMSMk3J9uJtSN4M2-40" value="curr_pc_ze[31:0]" style="edgeLabel;html=1;align=center;verticalAlign=middle;resizable=0;points=[];" vertex="1" connectable="0" parent="3i3wIMSMk3J9uJtSN4M2-38">
          <mxGeometry x="-0.8574" relative="1" as="geometry">
            <mxPoint x="-48" y="-2" as="offset" />
          </mxGeometry>
        </mxCell>
        <mxCell id="3i3wIMSMk3J9uJtSN4M2-42" value="_" style="text;html=1;align=center;verticalAlign=middle;resizable=0;points=[];autosize=1;strokeColor=none;fillColor=none;fontSize=20;fontStyle=1" vertex="1" parent="1">
          <mxGeometry x="255" y="322.5" width="30" height="40" as="geometry" />
        </mxCell>
        <mxCell id="3i3wIMSMk3J9uJtSN4M2-43" value="" style="endArrow=classic;html=1;rounded=0;entryX=0.326;entryY=1;entryDx=0;entryDy=0;entryPerimeter=0;strokeWidth=2;" edge="1" parent="1" target="3i3wIMSMk3J9uJtSN4M2-9">
          <mxGeometry width="50" height="50" relative="1" as="geometry">
            <mxPoint x="285" y="369" as="sourcePoint" />
            <mxPoint x="320" y="369" as="targetPoint" />
          </mxGeometry>
        </mxCell>
        <mxCell id="3i3wIMSMk3J9uJtSN4M2-45" value="" style="endArrow=none;html=1;rounded=0;strokeWidth=2;" edge="1" parent="1">
          <mxGeometry width="50" height="50" relative="1" as="geometry">
            <mxPoint x="224" y="342" as="sourcePoint" />
            <mxPoint x="224" y="259" as="targetPoint" />
          </mxGeometry>
        </mxCell>
        <mxCell id="3i3wIMSMk3J9uJtSN4M2-46" value="" style="endArrow=classic;html=1;rounded=0;entryX=0;entryY=0.546;entryDx=0;entryDy=0;entryPerimeter=0;strokeWidth=2;" edge="1" parent="1">
          <mxGeometry width="50" height="50" relative="1" as="geometry">
            <mxPoint x="224" y="342" as="sourcePoint" />
            <mxPoint x="255" y="342.34000000000003" as="targetPoint" />
          </mxGeometry>
        </mxCell>
        <mxCell id="3i3wIMSMk3J9uJtSN4M2-47" value="" style="rounded=0;whiteSpace=wrap;html=1;fillColor=none;dashed=1;" vertex="1" parent="1">
          <mxGeometry x="206" y="170" width="286" height="308" as="geometry" />
        </mxCell>
        <mxCell id="3i3wIMSMk3J9uJtSN4M2-49" value="AUIPC/B/J" style="text;html=1;align=center;verticalAlign=middle;resizable=0;points=[];autosize=1;strokeColor=none;fillColor=none;" vertex="1" parent="1">
          <mxGeometry x="357" y="234" width="76" height="27" as="geometry" />
        </mxCell>
        <mxCell id="3i3wIMSMk3J9uJtSN4M2-50" value="LUI" style="text;html=1;align=center;verticalAlign=middle;resizable=0;points=[];autosize=1;strokeColor=none;fillColor=none;" vertex="1" parent="1">
          <mxGeometry x="214" y="355" width="38" height="27" as="geometry" />
        </mxCell>
        <mxCell id="3i3wIMSMk3J9uJtSN4M2-51" value="J/B" style="text;html=1;align=center;verticalAlign=middle;resizable=0;points=[];autosize=1;strokeColor=none;fillColor=none;" vertex="1" parent="1">
          <mxGeometry x="392" y="394" width="36" height="27" as="geometry" />
        </mxCell>
        <mxCell id="3i3wIMSMk3J9uJtSN4M2-52" value="L" style="text;html=1;align=center;verticalAlign=middle;resizable=0;points=[];autosize=1;strokeColor=none;fillColor=none;" vertex="1" parent="1">
          <mxGeometry x="400" y="425" width="26" height="27" as="geometry" />
        </mxCell>
        <mxCell id="3i3wIMSMk3J9uJtSN4M2-56" value="&amp;nbsp;" style="text;whiteSpace=wrap;html=1;" vertex="1" parent="1">
          <mxGeometry x="176" y="268" width="23" height="28" as="geometry" />
        </mxCell>
      </root>
    </mxGraphModel>
  </diagram>
</mxfile>
